<?xml version="1.0" encoding="iso-8859-1"?>
<!-- Generator: Adobe Illustrator 16.0.0, SVG Export Plug-In . SVG Version: 6.00 Build 0)  -->
<!DOCTYPE svg PUBLIC "-//W3C//DTD SVG 1.1//EN" "http://www.w3.org/Graphics/SVG/1.1/DTD/svg11.dtd">
<svg version="1.1" id="Capa_1" xmlns="http://www.w3.org/2000/svg" xmlns:xlink="http://www.w3.org/1999/xlink" x="0px" y="0px"
	 width="907.301px" height="907.301px" viewBox="0 0 907.301 907.301" style="enable-background:new 0 0 907.301 907.301;"
	 xml:space="preserve">
<g>
	<path d="M432.25,332.1h-70.899v46.2c-105.1,37.8-180.2,138.399-180.2,256.5c0,150.5,122,272.5,272.5,272.5s272.5-122,272.5-272.5
		c0-118.102-75.1-218.601-180.2-256.5V103.4h15.601c13.8,0,25-11.2,25-25V25c0-13.8-11.2-25-25-25H345.75c-13.8,0-25,11.2-25,25
		v53.4c0,13.8,11.2,25,25,25h15.601v51.4h70.899c16.601,0,30,13.4,30,30s-13.399,30-30,30h-70.899v57.3h70.899
		c16.601,0,30,13.4,30,30C462.25,318.7,448.75,332.1,432.25,332.1z M669.15,634.801c0,119-96.5,215.5-215.5,215.5
		s-215.5-96.5-215.5-215.5H669.15z"/>
</g>
<g>
</g>
<g>
</g>
<g>
</g>
<g>
</g>
<g>
</g>
<g>
</g>
<g>
</g>
<g>
</g>
<g>
</g>
<g>
</g>
<g>
</g>
<g>
</g>
<g>
</g>
<g>
</g>
<g>
</g>
</svg>
